<svg width="20" height="21" viewBox="0 0 20 21" fill="none" xmlns="http://www.w3.org/2000/svg">
<path d="M18.3334 8.01732V4.23398C18.3334 3.05898 17.8 2.58398 16.475 2.58398H13.1084C11.7834 2.58398 11.25 3.05898 11.25 4.23398V8.00898C11.25 9.19232 11.7834 9.65898 13.1084 9.65898H16.475C17.8 9.66732 18.3334 9.19232 18.3334 8.01732Z" fill="#0F0F0F"/>
<path d="M18.3334 17.3923V14.0257C18.3334 12.7007 17.8 12.1673 16.475 12.1673H13.1084C11.7834 12.1673 11.25 12.7007 11.25 14.0257V17.3923C11.25 18.7173 11.7834 19.2507 13.1084 19.2507H16.475C17.8 19.2507 18.3334 18.7173 18.3334 17.3923Z" fill="#0F0F0F"/>
<path d="M8.75002 8.01732V4.23398C8.75002 3.05898 8.21669 2.58398 6.89169 2.58398H3.52502C2.20002 2.58398 1.66669 3.05898 1.66669 4.23398V8.00898C1.66669 9.19232 2.20002 9.65898 3.52502 9.65898H6.89169C8.21669 9.66732 8.75002 9.19232 8.75002 8.01732Z" fill="#0F0F0F"/>
<path d="M8.75002 17.3923V14.0257C8.75002 12.7007 8.21669 12.1673 6.89169 12.1673H3.52502C2.20002 12.1673 1.66669 12.7007 1.66669 14.0257V17.3923C1.66669 18.7173 2.20002 19.2507 3.52502 19.2507H6.89169C8.21669 19.2507 8.75002 18.7173 8.75002 17.3923Z" fill="#0F0F0F"/>
</svg>
