<svg width="20" height="21" viewBox="0 0 20 21" fill="none" xmlns="http://www.w3.org/2000/svg">
<path d="M10 2.625C7.8167 2.625 6.0417 4.4 6.0417 6.58333C6.0417 8.725 7.7167 10.4583 9.90003 10.5333C9.9667 10.525 10.0334 10.525 10.0834 10.5333C10.1 10.5333 10.1084 10.5333 10.125 10.5333C10.1334 10.5333 10.1334 10.5333 10.1417 10.5333C12.275 10.4583 13.95 8.725 13.9584 6.58333C13.9584 4.4 12.1834 2.625 10 2.625Z" fill="black"/>
<path d="M14.2334 12.75C11.9084 11.2 8.1167 11.2 5.77503 12.75C4.7167 13.4583 4.13336 14.4167 4.13336 15.4417C4.13336 16.4667 4.7167 17.4167 5.7667 18.1167C6.93336 18.9 8.4667 19.2917 10 19.2917C11.5334 19.2917 13.0667 18.9 14.2334 18.1167C15.2834 17.4083 15.8667 16.4583 15.8667 15.425C15.8584 14.4 15.2834 13.45 14.2334 12.75Z" fill="black"/>
</svg>
