<svg width="20" height="20" viewBox="0 0 20 20" fill="none" xmlns="http://www.w3.org/2000/svg">
<path d="M17.3583 6.67485L11.9 2.30819C10.8333 1.45819 9.16666 1.44985 8.10832 2.29985L2.64999 6.67485C1.86666 7.29985 1.39166 8.54985 1.55832 9.53319L2.60832 15.8165C2.84999 17.2249 4.15832 18.3332 5.58332 18.3332H14.4167C15.825 18.3332 17.1583 17.1999 17.4 15.8082L18.45 9.52485C18.6 8.54985 18.125 7.29985 17.3583 6.67485ZM10.625 14.9999C10.625 15.3415 10.3417 15.6249 9.99999 15.6249C9.65832 15.6249 9.37499 15.3415 9.37499 14.9999V12.4999C9.37499 12.1582 9.65832 11.8749 9.99999 11.8749C10.3417 11.8749 10.625 12.1582 10.625 12.4999V14.9999Z" fill="#0F0F0F"/>
</svg>
